C:\Users\r0593348\3dpredictsim\Results\Batchsim_tmt_linear\Pog_s1_tmt_bCst_d00_k2000_ig24_pas_GRF.mot
nRows=12
nColumns=19

name C:\Users\r0593348\3dpredictsim\Results\Batchsim_tmt_linear\Pog_s1_tmt_bCst_d00_k2000_ig24_pas_GRF.mot
datacolumns 19
datarows 12
range 0.0000000000 0.1214413643
endheader
time 	ground_force_vx	ground_force_vy	ground_force_vz	ground_force_px	ground_force_py	ground_force_pz	1_ground_force_vx	1_ground_force_vy	1_ground_force_vz	1_ground_force_px	1_ground_force_py	1_ground_force_pz	ground_torque_x	ground_torque_y	ground_torque_z	1_ground_torque_x	1_ground_torque_y	1_ground_torque_z
        0.0000000000	      -64.4203148892	       50.9336348340	       20.9917018691	        0.1839389947	        0.0000000000	        0.0394667524	      100.3364977849	      565.3645064663	       -1.4318709477	       -0.3006895175	        0.0000000000	       -0.0381370002	        0.0000000000	        0.0000000000	        0.0000000000	        0.0000000000	        0.0000000000	        0.0000000000	
        0.0110401240	     -107.3789793454	      118.0913299133	       58.3022176305	        0.1917498648	        0.0000000000	        0.0371820554	       89.2165842215	      496.0360780290	       -4.5457120635	       -0.2982080654	        0.0000000000	       -0.0376496774	        0.0000000000	        0.0000000000	        0.0000000000	        0.0000000000	        0.0000000000	        0.0000000000	
        0.0220802481	      -37.9742461160	      237.6249019818	       33.8141721486	        0.1970197432	        0.0000000000	        0.0347965975	       75.1733312305	      412.9552219553	       -5.7524199604	       -0.2945326786	        0.0000000000	       -0.0366362827	        0.0000000000	        0.0000000000	        0.0000000000	        0.0000000000	        0.0000000000	        0.0000000000	
        0.0331203721	      -29.7802799998	      367.4672554985	        4.2242773484	        0.1992927719	        0.0000000000	        0.0340959332	       60.2517900238	      329.9926096667	       -3.7178697974	       -0.2892403280	        0.0000000000	       -0.0348283963	        0.0000000000	        0.0000000000	        0.0000000000	        0.0000000000	        0.0000000000	        0.0000000000	
        0.0441604961	      -47.9727068693	      489.8038862070	       -1.1992413416	        0.2026093059	        0.0000000000	        0.0348040414	       36.9654663421	      241.0296740154	       -4.6081916998	       -0.2805580714	        0.0000000000	       -0.0314070501	        0.0000000000	        0.0000000000	        0.0000000000	        0.0000000000	        0.0000000000	        0.0000000000	
        0.0552006201	      -77.5563503775	      628.9636812542	       -5.8463744164	        0.2099672267	        0.0000000000	        0.0371260453	       15.4756730646	      158.8402088554	       -9.5988670299	       -0.2658725007	        0.0000000000	       -0.0247908225	        0.0000000000	        0.0000000000	        0.0000000000	        0.0000000000	        0.0000000000	        0.0000000000	
        0.0662407442	      -97.1878204261	      734.3140934891	       -9.0206649705	        0.2158983888	        0.0000000000	        0.0389093617	        3.4270058630	      127.6041157868	      -12.4019088426	       -0.2615060370	        0.0000000000	       -0.0225467445	        0.0000000000	        0.0000000000	        0.0000000000	        0.0000000000	        0.0000000000	        0.0000000000	
        0.0772808682	     -101.9038110777	      781.6279581276	      -11.0031780434	        0.2201983468	        0.0000000000	        0.0400809253	        1.5963025567	       97.4239667159	      -13.2478452247	       -0.2609246187	        0.0000000000	       -0.0226474454	        0.0000000000	        0.0000000000	        0.0000000000	        0.0000000000	        0.0000000000	        0.0000000000	
        0.0883209922	      -98.0687991107	      787.7544096439	      -11.2986839049	        0.2234570446	        0.0000000000	        0.0408530231	       -2.5309121027	       62.1886322280	      -11.8387358039	       -0.2604494795	        0.0000000000	       -0.0226683152	        0.0000000000	        0.0000000000	        0.0000000000	        0.0000000000	        0.0000000000	        0.0000000000	
        0.0993611162	      -91.1281445116	      777.8433104387	      -11.6996623877	        0.2262914089	        0.0000000000	        0.0413401881	       -7.9688855166	       24.8027384440	       -5.5042376580	       -0.2608051710	        0.0000000000	       -0.0222590419	        0.0000000000	        0.0000000000	        0.0000000000	        0.0000000000	        0.0000000000	        0.0000000000	
        0.1104012403	      -82.1808987821	      766.5418014331	      -12.7142437340	        0.2293240664	        0.0000000000	        0.0416157119	        0.0753979872	       -0.0735789148	        0.0015437611	        0.0000000000	        0.0000000000	        0.0000000000	        0.0000000000	        0.0000000000	        0.0000000000	        0.0000000000	        0.0000000000	        0.0000000000	
        0.1214413643	      -71.1319686001	      747.6124551649	      -13.7636699315	        0.2325107568	        0.0000000000	        0.0417823057	        0.0001439534	       -0.0001147808	       -0.0000076519	        0.0000000000	        0.0000000000	        0.0000000000	        0.0000000000	        0.0000000000	        0.0000000000	        0.0000000000	        0.0000000000	        0.0000000000	
